<?xml version="1.0" encoding="UTF-8" standalone="no"?>
<!-- Created with Inkscape (http://www.inkscape.org/) -->

<svg width="271.19791mm"
   height="271.08109mm"
   viewBox="0 0 271.19791 271.08109"
   version="1.1"
   id="svg11386"
   inkscape:version="1.2.2 (b0a8486541, 2022-12-01)"
   sodipodi:docname="Workshop Revival Logo1.svg"
   inkscape:export-filename="Workshop Revival Logo1.png"
   inkscape:export-xdpi="9.5531712"
   inkscape:export-ydpi="9.5531712"
   xmlns:inkscape="http://www.inkscape.org/namespaces/inkscape"
   xmlns:sodipodi="http://sodipodi.sourceforge.net/DTD/sodipodi-0.dtd"
   xmlns="http://www.w3.org/2000/svg"
   xmlns:svg="http://www.w3.org/2000/svg">
  <sodipodi:namedview
     id="namedview11388"
     pagecolor="#e6ddc9"
     bordercolor="#666666"
     borderopacity="1.0"
     inkscape:showpageshadow="2"
     inkscape:pageopacity="0"
     inkscape:pagecheckerboard="0"
     inkscape:deskcolor="#d1d1d1"
     inkscape:document-units="mm"
     showgrid="false"
     inkscape:zoom="0.37092835"
     inkscape:cx="354.51591"
     inkscape:cy="450.22172"
     inkscape:window-width="1360"
     inkscape:window-height="745"
     inkscape:window-x="1280"
     inkscape:window-y="0"
     inkscape:window-maximized="1"
     inkscape:current-layer="g13517" />
  <defs
     id="defs11383" />
  <g
     inkscape:label="Layer 1"
     inkscape:groupmode="layer"
     id="layer1"
     transform="translate(2.2303596,-54.871919)">
    <g
       id="g13517"
       transform="matrix(0.26458333,0,0,0.26458333,-2.0980679,54.985643)">
      <rect
         style="font-variation-settings:'wght' 800;opacity:1;fill:#e6ddc9;stroke-width:0.79375;stroke-linecap:round;fill-opacity:1"
         id="rect346"
         width="271"
         height="271"
         x="-2.1314063"
         y="54.91246"
         transform="matrix(3.7795276,0,0,3.7795276,7.9297056,-207.81976)"
         inkscape:export-filename="./rect346.png"
         inkscape:export-xdpi="47.990002"
         inkscape:export-ydpi="47.990002" />
      <path
         style="fill:#7a933c;fill-opacity:1"
         d="m 318.5,923.08565 c -21.4423,-2.71931 -31.04824,-21.64582 -40.93132,-37.61766 -6.24925,-10.09929 -5.23309,-8.92513 -10.0852,-18.8932 -8.34036,-17.13426 -15.9068,36.58936 -31.59164,44.4455 -22.61376,-8.16007 1.82629,-35.99836 7.48903,-49.66381 8.30436,-13.35288 14.12926,-26.77098 23.1364,-40.71225 4.58051,-9.0553 19.12001,-26.25905 -2.03668,-19.10107 -14.98474,5.06981 -24.05412,24.74317 -40.11798,20.30311 -9.58937,-21.25458 17.76595,-33.01488 33.79238,-39.09548 8.74938,-3.31961 9.20727,-2.98211 15.8417,-5.26645 21.61036,-7.44078 47.41597,-8.11302 66.83297,6.40191 19.44442,13.11095 15.18369,41.64946 -0.89358,55.62093 -13.38876,16.55123 -38.05397,15.09381 -52.56656,27.10224 5.8343,9.53822 24.04588,32.74887 22.70802,31.29006 8.76036,11.43423 49.16711,3.92561 27.63954,22.41925 -6.31973,1.15526 -12.64252,3.25509 -19.21708,2.76692 z m -36.08753,-74.69043 c 17.27536,-5.00816 35.85568,-11.68289 48.03014,-23.32292 13.88229,-18.68808 -10.18105,-39.91557 -29.00855,-30.23317 -8.91155,16.83545 -20.21972,34.56682 -28.35078,51.89766 1.61587,3.44824 6.46028,2.32741 9.32919,1.65843 z M 557,901.8902 c -21.26418,5.3099 -8.76057,-41.52154 -25.44912,-16.52105 -10.2253,18.94787 -47.43192,20.70232 -38.76051,-7.11276 4.62541,-14.83683 3.03073,-31.77291 -10.01762,-19.66911 -13.02981,13.38261 -21.98644,32.14772 -40.72643,38.98258 -15.41086,9.94262 -27.53754,-1.49986 -28.26233,-17.68146 -17.31539,10.67682 -39.39583,29.83373 -61.02644,17.86966 -20.74049,-13.52104 -6.11761,-42.53775 4.32302,-57.27041 11.76281,-16.416 32.92239,-36.89703 54.80148,-26.42368 12.76381,16.3291 -3.36893,38.51593 -18.10727,47.76032 -9.3471,9.54255 -44.38178,15.03039 -27.46428,22.62986 18.00465,8.08782 38.76323,-15.02231 52.45866,-29.41213 10.44892,-9.47666 15.08587,-54.59807 36.93038,-36.23138 1.06626,20.80863 -21.5453,37.31978 -21.85417,58.10846 7.64318,10.27192 14.13474,-3.89832 18.84888,-7.2212 10.67152,-12.01158 25.26368,-24.24764 22.34848,-45.41273 -2.2955,-20.15832 33.44008,-27.64969 24.47574,-2.36326 -3.26041,9.1969 -9.47915,20.70516 4.68415,20.94243 13.38169,0.22418 19.1326,-42.17069 34.01774,-21.27551 -2.94071,19.94681 -21.50757,32.38088 -26.22768,52.98456 1.06966,18.38036 23.88567,-12.18436 28.23086,-16.09793 16.43433,-11.15215 15.81817,-50.42903 40.31004,-42.31969 9.32689,18.99331 -17.82775,36.26748 -19.22805,55.17208 -0.29855,24.5598 26.67422,-8.66819 34.81377,-20.30161 11.74354,-12.66256 -0.0877,-49.95865 27.21544,-46.40805 15.48338,10.87929 -20.0279,46.91305 11.20911,36.86436 12.89011,-12.68318 24.17393,-28.83464 43.04241,-31.64434 12.50322,3.66135 30.62791,0.0203 37.7303,10.92833 -5.8132,18.85156 -21.23004,32.75096 -25.52437,52.63513 3.68134,18.8513 26.0466,-8.51531 31.35912,-16.50175 5.6296,-20.43392 16.39895,-39.29434 27.93887,-56.87977 9.66922,-15.27266 33.52303,-39.54917 50.79652,-21.82477 7.73114,22.85779 -11.31831,43.08053 -25.6827,58.50403 -11.21989,14.3492 -29.76206,22.63405 -37.95082,37.73814 10.59688,23.28056 37.79279,0.61078 48.00208,-12.64184 -14.64837,20.11643 21.22751,-32.51886 17.2699,-6.04274 -6.74261,21.90331 -27.74097,36.35968 -47.71567,45.12934 -18.12948,6.84804 -26.52384,-10.78916 -38.16325,-18.10238 -10.87785,17.92032 -44.1809,23.62157 -43.94861,-3.68077 -10.67453,4.28933 -27.84993,29.08657 -46.91356,20.89128 -14.9458,-11.17666 -0.24637,-39.82574 4.76568,-43.95985 -18.96204,-5.12356 -29.08562,14.17655 -39.6993,27.98735 -9.33218,7.48163 -19.6101,19.1423 -32.85045,17.87226 z m 111.53976,-22.68377 c -11.25076,6.45888 11.67157,-6.70046 0,0 z m -20.28976,1.6052 c 13.07581,-14.67809 31.09232,-26.46153 37.42808,-45.71346 4.10552,-23.4227 -30.41418,4.3294 -34.63125,15.45857 -3.87279,6.2522 -25.68606,37.42978 -2.79683,30.25489 z m -120.78667,-7.40494 c 15.62079,-17.0054 -17.26214,15.99134 0,0 z M 374.24309,858.44081 c 11.8141,-4.13457 32.54294,-19.89836 21.73116,-31.34531 -11.67438,-1.21499 -37.44721,30.53003 -22.86854,31.64424 z m 372.35192,-12.6127 c 11.20156,-10.04033 14.21032,-13.59731 24.8169,-26.46948 8.77112,-3.90519 22.55532,-37.35776 5.71998,-26.18708 -11.49889,8.64689 -20.31721,25.75109 -28.02504,40.29977 -1.40513,0.55655 -10.62238,18.47784 -2.51184,12.35679 z M 535.92279,802.40697 c -12.51835,-19.16565 24.78507,-37.17236 21.76198,-10.64742 -0.92285,9.64411 -13.85646,14.03858 -21.76198,10.64742 z"
         id="path13527"
         sodipodi:nodetypes="ssssssssssssssssssssssssssssssssssssssssssssssssssssssssssssssssssssssssssssssssssss" />
      <path
         style="fill:#a4602d;fill-opacity:1"
         d="m 488.5,570.22282 c -1.65,-0.24801 -9.53829,-0.32502 -17.23829,-1.42552 -14.24967,-2.0366 -19.02048,-6.15784 -35.993,-10.85218 C 376.25423,541.62261 319.75047,485.99107 300.43478,438.59011 295.53671,426.57019 288.06545,404.68655 283.827,378.98033 281.92608,367.45126 281.08576,368.17226 272.23918,366.0512 L 267.85484,365 l 1.13602,-3.50445 c 1.02997,-3.1773 51.21946,-55.26294 52.29786,-55.26294 2.07877,0 54.54268,56.33472 57.69476,61.81483 0.62274,1.08267 -4.07928,1.49467 -9.84816,1.01103 -5.51113,-0.46203 -4.78206,1.24229 -5.47021,2.32922 -2.69394,4.25504 0.0512,17.29294 6.7022,31.83348 6.78217,24.12792 36.83677,48.24136 55.98643,60.86563 42.90743,27.50297 111.43031,28.918 156.89179,11.90868 39.84142,6.18519 17.18137,56.99953 -4.54353,76.53112 -0.69548,0.838 -3.00784,4.21144 -4.77711,4.86649 -22.27163,7.76882 -37.61404,12.35759 -60.66318,12.70036 -12.1,0.17995 -23.11171,0.37737 -24.76171,0.12937 z M 290.54584,252.17341 c 21.08387,-42.36856 23.12143,-39.82445 33.0387,-50.78334 43.94219,-58.01046 26.05507,-35.22517 85.76637,-70.26011 87.34717,-30.69268 105.58257,-0.85301 126.00713,22.85929 l 8.33047,8.37398 c 9.61914,9.66939 34.94665,44.57846 25.02262,41.188 -44.21295,-9.35594 -78.26936,-8.26371 -116.56065,7.32799 -4.88118,3.2275 -28.13987,17.44285 -30.41418,19.36785 -12.95665,10.96662 -35.73025,40.80333 -45.27255,60.90014 -36.19615,-14.28474 -53.59227,-23.96991 -85.91791,-38.9738 z m 37.00215,-55.39372 c -218.69866,-131.473009 -109.34933,-65.7365 0,0 z"
         id="path13525"
         sodipodi:nodetypes="sssssscsssssccccccsccccsccscccc" />
      <path
         style="fill:#4a2e1a;fill-opacity:1"
         d="m 481.68128,541.34231 c -0.0997,-0.0867 -5.18413,-0.6558 -11.29872,-1.2646 -13.89351,-1.38329 -33.63175,-5.76809 -40.88256,-9.08194 -1.1,-0.50274 -6.5,-2.76548 -12,-5.02832 -20.52268,-8.44355 -31.14896,-15.14508 -45,-28.37951 l -7,-6.68838 5.2859,2.58526 c 2.90725,1.42189 6.95725,4.06133 9,5.86542 7.23921,6.3934 19.07637,14.84675 21.2141,15.14976 0.275,0.039 1.625,0.70399 3,1.4778 2.33737,1.3154 27.30392,11.82292 29.5,12.41547 0.55,0.14841 4.375,1.26761 8.5,2.48712 10.65787,3.15088 13.54355,3.82853 22,5.16631 4.125,0.65256 9.075,1.60528 11,2.11715 1.925,0.51188 5.75,1.1877 8.5,1.50181 6.93196,0.79181 9.27732,2.29365 3.18128,2.03712 -2.6503,-0.11153 -4.9003,-0.27374 -5,-0.36047 z M 494,529.38426 c -1.375,-0.19981 -6.325,-0.84675 -11,-1.43763 -10.47911,-1.32448 -27.84694,-6.04699 -38.5,-10.46861 -4.4,-1.82625 -12.5,-5.16344 -18,-7.41598 -13.88402,-5.68625 -25.75299,-12.40794 -22.71761,-12.86555 1.292,-0.19477 6.06521,1.57743 11,4.08409 4.79469,2.4355 12.31761,5.6472 16.71761,7.13713 4.4,1.48992 10.00764,3.62747 12.46142,4.75012 C 459.06068,520.076 489.93605,527 505.64155,527 c 3.99608,0 6.37016,0.36397 5.80845,0.89049 -1.05737,0.99113 -13.54996,2.06053 -17.45,1.49377 z m 0.52477,-18.42434 c 0.41682,-0.67443 -0.26555,-0.8121 -1.94098,-0.39159 -1.97623,0.496 -2.58379,0.27028 -2.58379,-0.95992 0,-1.91406 11.43505,-2.33343 14,-0.51344 1.12114,0.79552 0.41026,0.93978 -2.81458,0.57118 -3.14243,-0.35918 -4.46193,-0.10915 -4.85698,0.92035 -0.29833,0.77742 -0.97083,1.4135 -1.49445,1.4135 -0.52361,0 -0.66276,-0.46804 -0.30922,-1.04008 z m -11.2223,-7.75664 c -3.42101,-0.25522 -4.0973,-0.62673 -3.65567,-2.00821 0.40976,-1.28183 0.30926,-1.37031 -0.41225,-0.36293 -1.23066,1.71825 -7.22071,0.71025 -24.73455,-4.16231 -12.69749,-3.53259 -18.87007,-5.98921 -27.68992,-11.02028 -18.73522,-10.68706 -10.10547,-8.7929 11.43992,2.51097 2.0625,1.0821 3.75,1.72479 3.75,1.42822 0,-0.29658 1.2375,-0.0628 2.75,0.5196 7.62497,2.93585 39.60312,9.88679 45.5,9.89011 1.52432,8.6e-4 2.75682,0.55868 2.76531,1.25155 0.012,0.97527 0.18582,0.98164 0.79111,0.029 0.50926,-0.80151 2.07052,-1.01092 4.54419,-0.6095 9.32122,1.51263 -2.36352,3.4801 -15.04814,2.53381 z M 378.43893,457.22632 c -10.73245,-10.53883 -21.30219,-23.89184 -27.39165,-34.60452 -0.97599,-1.71699 -3.22132,-5.43306 -4.9896,-8.25793 -3.41839,-5.46095 -6.23998,-12.53382 -5.33126,-13.36387 0.30106,-0.275 0.75096,0.0705 0.99977,0.76786 0.24881,0.69732 1.00269,1.82232 1.67528,2.5 0.67259,0.67768 4.44244,6.49613 8.37743,12.92989 8.80495,14.39619 11.74352,18.3022 24.54026,32.61943 18.83635,21.07446 19.9304,24.89847 2.11977,7.40914 z m -27.49691,-2.01775 c -11.46347,-12.0618 -19.27542,-23.89826 -26.311,-39.86577 -4.99718,-11.34127 -6.77566,-17.1631 -4.22876,-13.8428 0.84377,1.1 1.54844,2.7875 1.56594,3.75 0.0175,0.9625 0.3693,1.75351 0.7818,1.7578 0.4125,0.004 1.24804,1.01679 1.85675,2.25 5.723,11.59444 8.77124,16.88813 15.68672,27.2422 4.40814,6.6 9.74544,13.97586 11.86067,16.39079 2.11522,2.41493 3.84586,4.96493 3.84586,5.66667 0,0.70173 0.5625,1.50285 1.25,1.78026 0.6875,0.27741 0.78789,0.53991 0.22308,0.58333 -0.5648,0.0434 -3.50378,-2.52719 -6.53106,-5.71248 z m 1.39614,-47.87927 c -5.65836,-9.62486 -6.36615,-10.93153 -9.33692,-17.23712 -6.80566,-14.44533 -0.17259,-5.49863 8.26901,11.15325 5.22677,10.31031 5.93943,14.37031 1.06791,6.08387 z M 347.3214,276.29542 c -1.23025,-0.43265 2.1733,-4.06391 9.04606,-9.65128 2.1271,-1.72928 4.38177,-3.59414 5.01037,-4.14414 0.62861,-0.55 4.11883,-3.57558 7.75606,-6.72351 3.63722,-3.14793 8.1519,-7.19793 10.03263,-9 1.88072,-1.80207 8.3093,-7.77649 14.28572,-13.27649 5.97642,-5.5 11.4487,-10.675 12.16062,-11.5 11.29102,-13.08444 17.75792,-24.43337 17.20475,-30.19305 -0.94351,-9.82387 -32.55646,-0.44969 -69.85433,20.71389 -4.86008,2.75771 -8.54373,4.23506 -9.65959,3.87405 -1.40433,-0.45435 -1.49343,-0.36284 -0.40242,0.41328 1.09398,0.77824 0.43609,1.48544 -3,3.22492 -2.4207,1.22544 -5.52627,3.00757 -6.90127,3.96028 -7.05406,4.88762 -34,18.01105 -34,16.55895 0,-0.8519 3.08926,-7.55232 3.48204,-7.55232 0.25035,0 0.16006,0.7875 -0.20066,1.75 -0.53251,1.4209 -0.38556,1.53212 0.78139,0.59139 2.76717,-2.23072 53.56171,-30.71213 66.59826,-37.34283 11.20276,-5.698 17.49935,-8.19382 37.33897,-14.8003 21.80676,-7.26152 28.09436,9.62239 11.66643,31.32753 -9.39692,12.41552 -35.07599,36.72906 -55.35615,52.41247 -11.93269,9.22799 -13.59307,10.1997 -15.98888,9.35716 z m -21.16271,-9.60421 C 325.22971,265.57185 327.66134,262 329.35236,262 c 0.18122,0 2.4481,-2.00122 5.03752,-4.44716 2.58942,-2.44593 7.7235,-6.57344 11.40908,-9.17224 C 360.0227,238.35107 387,216.46178 387,214.95022 387,214.4276 386.1,214 385,214 c -1.1,0 -2,0.40276 -2,0.89503 0,0.82225 -15.91598,9.10497 -17.49599,9.10497 -0.90389,0 -26.00206,14.04319 -34.43997,19.27021 -17.54676,10.86966 -22.43141,13.69576 -22.88605,13.24111 -0.27168,-0.27168 -1.09255,0.003 -1.82415,0.60998 -1.00008,0.82999 -1.47773,0.71943 -1.92477,-0.44553 -0.34155,-0.89007 -1.30412,-1.32855 -2.26183,-1.03034 -0.91698,0.28553 0.48413,-0.75538 3.11358,-2.31314 2.62944,-1.55776 9.37944,-5.7198 15,-9.24898 21.949,-13.78192 28.87033,-17.63199 61.61595,-34.27456 14.4281,-7.33292 15.21943,-7.57859 17.10248,-5.30965 3.66147,4.41179 -12.56782,20.7497 -41.99925,42.28033 -6.325,4.62707 -12.625,9.25884 -14,10.29281 -15.14879,11.39162 -15.29896,11.47739 -16.84131,9.61897 z m 100.73316,-46.48914 c 1.96532,-3.67222 20.23418,-18.49058 32.86165,-26.65496 7.24096,-4.68169 16.54595,-10.93776 20.67776,-13.90237 15.32556,-10.99625 43.1985,-15.02917 60.24616,-8.71698 3.39758,1.25801 6.77258,2.08611 7.5,1.84022 1.08801,-0.36779 6.33564,5.1078 5.56086,5.80242 -0.33359,0.29908 -7.50621,-1.0271 -19.2339,-3.55623 -9.75812,-2.10439 -21.20658,-2.28701 -28.50438,-0.45469 -8.26857,2.07606 -16.0781,5.10243 -20,7.75046 C 473.03455,191.06409 470.04435,193 469.48815,193 c -1.47303,0 -20.39985,13.33386 -19.95303,14.05682 0.27363,0.44274 -0.0294,1.13061 -0.67332,1.52859 -0.73122,0.45192 -0.90292,0.29014 -0.45729,-0.4309 1.35915,-2.19916 -0.97059,-1.1422 -3.51678,1.59549 -2.60225,2.79797 -10.49178,7.89662 -11.71523,7.57103 -0.36987,-0.0984 -1.03766,0.47354 -1.48396,1.27104 -0.4463,0.7975 -1.2338,1.18897 -1.75,0.86995 -0.5162,-0.31903 -0.93854,-0.15164 -0.93854,0.37197 0,0.52362 -0.68541,1.21505 -1.52314,1.53652 -1.19164,0.45727 -1.31896,0.20297 -0.58501,-1.16844 z M 321.00803,203.98499 c 1.00001,-1.86852 21.19647,-12.09572 33.99197,-17.21304 4.125,-1.64971 7.95,-3.33615 8.5,-3.74763 1.89513,-1.41784 30.27794,-12.12266 41.62684,-15.69992 22.66444,-7.14401 27.57033,-8.4381 39.16236,-10.33037 6.48406,-1.05845 12.12382,-2.13126 12.53279,-2.38401 0.40897,-0.25276 2.75383,-0.69749 5.2108,-0.98829 2.45696,-0.29079 6.71721,-1.00145 9.46721,-1.57922 7.84484,-1.64821 22.62415,-2.7495 39.52347,-2.94513 l 15.52348,-0.1797 2.97652,3.11853 2.97653,3.11854 -14,-0.70277 c -14.33372,-0.71951 -31.46916,0.38615 -47,3.03268 -4.4,0.74978 -9.95181,1.65006 -12.33735,2.00062 -23.76389,3.49211 -68.37181,16.77581 -90.82781,27.0474 -2.96676,1.35703 -5.79216,2.46732 -6.27866,2.46732 -0.48651,0 -7.78567,3.08944 -16.22037,6.86542 -18.54187,8.30068 -26.27887,10.83096 -24.82778,8.11957 z M 353,171.19244 C 353,169.92897 360.35895,164 361.92715,164 c 0.62663,0 3.27583,-1.08264 5.8871,-2.40587 2.61127,-1.32323 5.63381,-2.56073 6.71676,-2.75 1.08294,-0.18927 2.19399,-0.59603 2.46899,-0.9039 0.86287,-0.96603 13.12019,-4.68449 22.5,-6.82575 36.03849,-8.22703 71.09699,-12.91582 95.15419,-12.7261 9.18391,0.0724 13.95189,-0.23953 13.5781,-0.88838 -0.31684,-0.55 0.28877,-0.2809 1.34582,0.598 1.05704,0.8789 2.73791,1.88822 3.73527,2.24294 0.99736,0.35471 1.55223,1.06749 1.23305,1.58394 -0.31919,0.51645 0.66479,1.08213 2.18662,1.25706 1.52182,0.17493 -6.91323,0.38729 -18.74456,0.4719 -30.91188,0.22107 -71.20616,5.65073 -99.46134,13.40243 -4.09636,1.12382 -8.33655,2.21444 -9.42264,2.4236 -1.08609,0.20917 -2.79142,0.81739 -3.78961,1.3516 -0.9982,0.53422 -2.0399,0.98663 -2.3149,1.00537 -0.275,0.0187 -1.175,0.25778 -2,0.53121 -10.14958,3.36392 -15.17857,5.17307 -18.63965,6.70554 C 356.63923,171.60673 353,172.43053 353,171.19244 Z"
         id="path13521" />
      <path
         style="fill:#2f2f2f;fill-opacity:1"
         d="m 278.14762,757.94682 c -14.6681,-2.06442 -24.6711,-9.14707 -30.36762,-21.50187 -3.25861,-7.06738 -3.54273,-85.51914 -0.34028,-93.95755 11.76055,-30.98887 65.74851,-31.62719 75.23811,-0.88957 3.0157,9.76811 2.75467,88.88544 -0.31516,95.52457 -4.81811,10.42015 -17.16938,19.06036 -29.10004,20.35665 -3.16945,0.34437 -6.66263,0.75999 -7.76263,0.9236 -1.1,0.16362 -4.40857,-0.0415 -7.35238,-0.45583 z m 15.18308,-25.99231 c 1.43022,-1.12501 3.0634,-3.71251 3.62928,-5.75 1.37135,-4.93763 1.37135,-69.47139 0,-74.40902 -2.68994,-9.68533 -18.2386,-11.11257 -22.8503,-2.09749 -1.80616,3.53074 -1.56778,73.26985 0.26545,77.65738 2.80418,6.71135 13.09585,9.20839 18.95557,4.59913 z m 278.21654,25.93418 c -20.01483,-2.91651 -31.19554,-15.13741 -31.73432,-34.6867 -0.23442,-8.50541 0.0747,-8.70199 13.68519,-8.70199 12.9285,0 13.25497,0.16334 14.07172,7.0404 1.9703,16.59 23.55068,17.85511 23.77576,1.39381 0.12251,-8.96039 -3.24008,-12.59355 -25.98487,-28.0757 -34.49905,-23.48316 -33.0472,-67.91741 2.44731,-74.90053 29.80446,-5.86366 50.25557,8.54079 50.17666,35.34124 -0.0215,7.31417 -0.11977,7.37721 -12.32341,7.90856 -12.16702,0.52975 -13.65728,-0.0732 -13.66686,-5.52921 -0.0255,-14.55312 -17.38096,-21.57105 -22.57908,-9.1302 -4.56187,10.91809 -1.94115,15.36145 17.41746,29.53087 26.56371,19.44314 31.05315,25.41225 31.94561,42.47448 1.13172,21.63627 -6.83634,32.34358 -27.19612,36.54555 -9.86304,2.03559 -11.13829,2.08584 -20.03505,0.78942 z m 196.68566,1.7e-4 c -11.45343,-1.90778 -22.07169,-9.26873 -26.78298,-18.56692 L 738.5,733.5 v -45 -45 l 3.36633,-6.20686 c 15.39636,-28.38788 65.76291,-23.4165 73.77949,7.28233 2.75037,10.53231 1.5251,86.44077 -1.50338,93.13829 -6.7203,14.86205 -26.25879,23.4483 -45.90954,20.1751 z m 16.73347,-25.37147 c 1.7017,-0.87998 3.31295,-2.83371 3.96409,-4.80667 1.63781,-4.96263 1.7615,-72.08404 0.14187,-76.99156 -3.37167,-10.21627 -21.63172,-8.94563 -23.61003,1.64292 -1.57697,8.4405 -8.9e-4,74.17136 1.846,76.98786 3.04993,4.65112 11.76567,6.21453 17.65807,3.16745 z M 125.57331,753.75 c -0.72854,-1.7875 -3.44217,-15.85 -6.03026,-31.25 -2.5881,-15.4 -5.54075,-32.725 -6.56144,-38.5 -1.02068,-5.775 -2.76634,-15.9 -3.87924,-22.5 -1.11289,-6.6 -3.0206,-17.7481 -4.23935,-24.77355 -2.64146,-15.22664 -2.85224,-14.84037 8.28742,-15.1876 17.43375,-0.54341 16.73864,-1.24224 19.35757,19.46115 0.86967,6.875 2.42829,18.125 3.4636,25 1.0353,6.875 2.20328,15.875 2.59552,20 1.73072,18.20153 2.63024,15.65719 9.8991,-28 3.15931,-18.975 5.94841,-34.8375 6.198,-35.25 0.81143,-1.34105 21.98956,-0.88171 23.0525,0.5 0.52888,0.6875 1.73275,5.75 2.67527,11.25 3.74995,21.88279 10.69344,60.07989 11.16006,61.39313 0.9889,2.78308 1.56557,-0.008 4.44466,-21.50975 4.85586,-36.26522 7.23781,-50.94967 8.46403,-52.17957 0.92413,-0.92691 19.94598,-1.56953 23.09134,-0.78009 3.12939,0.78543 3.12077,1.13131 -0.54887,22.01874 -1.64823,9.38165 -5.9301,35.05754 -9.51527,57.05754 -8.54172,52.41537 -8.48642,52.11565 -9.99712,54.18166 -1.77417,2.42631 -24.69147,2.54628 -27.09591,0.14183 -0.87449,-0.87449 -2.33301,-6.64333 -3.51654,-13.90887 -1.11226,-6.82804 -3.39355,-19.61462 -5.06954,-28.41462 -1.67599,-8.8 -3.26969,-17.2375 -3.54155,-18.75 -1.61855,-9.00484 -3.27034,-2.68629 -8.82293,33.75 -4.77697,31.34669 -3.48004,29.5 -20.71789,29.5 H 126.89795 Z M 348.2,755.8 c -2.21636,-2.21636 -1.67926,-132.66597 0.55,-133.58138 4.1311,-1.69639 49.49255,-0.69141 55.52291,1.2301 15.851,5.05074 19.21745,12.5026 19.22296,42.55128 0.005,25.70367 -0.61194,28.1687 -9.19347,36.75024 -5.46853,5.46852 -5.6108,4.83441 8.45019,37.6632 7.10622,16.5912 7.44648,16.00285 -9.46406,16.36457 -15.5633,0.3329 -13.3713,2.47827 -20.7187,-20.27801 -7.5271,-23.31285 -8.63141,-25.50464 -12.84015,-25.48469 -5.92669,0.0281 -5.86749,-0.19784 -5.91811,22.58759 -0.0276,12.4317 -0.45355,21.40347 -1.05144,22.1471 -1.36922,1.70298 -22.86339,1.74674 -24.56013,0.05 z m 44.62944,-69.2118 c 3.82259,-1.97674 4.29427,-3.34218 4.91205,-14.21953 1.21658,-21.42068 -0.64164,-24.72425 -14.18326,-25.2152 L 374,646.80694 v 19.92986 c 0,10.96143 0.23456,20.16443 0.52124,20.45111 1.30817,1.30817 15.51894,0.84267 18.3082,-0.59971 z m 56.24632,69.00308 c -1.6267,-1.96005 -1.45494,-132.03506 0.17612,-133.37443 0.68647,-0.56371 6.04406,-1.07752 11.90576,-1.14181 14.90074,-0.16344 13.93376,-2.00284 13.60828,25.88587 -0.17391,14.90245 0.0801,22.6431 0.73408,22.37259 1.47713,-0.61098 10.39432,-15.8842 18.58583,-31.8335 8.95499,-17.43583 7.71258,-16.5 21.9053,-16.5 16.36315,0 16.91751,0.91767 8.88283,14.70428 -4.34391,7.45366 -14.53218,26.14431 -22.15778,40.64904 l -2.02582,3.85331 2.03699,4.64669 c 1.12035,2.55567 4.81703,11.17168 8.21486,19.14668 8.98176,21.08097 17.00568,39.81582 19.35406,45.1893 3.25858,7.45616 2.26277,7.99905 -13.59346,7.41081 -7.14141,-0.26493 -13.28646,-0.84584 -13.65565,-1.2909 C 502.67797,754.86414 500.68416,750 498.61647,744.5 492.88646,729.25835 484.62037,710.77143 483.5,710.69237 c -0.55,-0.0388 -2.79092,2.51856 -4.97983,5.68306 l -3.97983,5.75363 0.20859,15.54091 c 0.27354,20.38037 0.97065,19.36593 -13.23269,19.2562 -7.79428,-0.0602 -11.73338,-0.48288 -12.44048,-1.33489 z M 640.25,755.98501 638,755.06445 v -66.42524 c 0,-59.64863 0.16137,-66.48716 1.58179,-67.03222 3.04841,-1.16979 21.9688,-0.65686 23.71892,0.64301 1.48992,1.10661 1.71259,4.23255 1.94113,27.25 l 0.25816,26 12.22328,0.28056 c 14.85199,0.34091 13.42257,3.41828 13.05473,-28.10536 -0.26374,-22.60179 -0.17837,-23.89795 1.66312,-25.25 2.57506,-1.89064 22.80759,-2.03536 24.35223,-0.17419 1.63185,1.96626 1.97696,131.3779 0.35469,133.00348 -1.65711,1.66048 -22.19234,2.32736 -25.02268,0.81261 -2.0017,-1.07128 -2.06298,-1.84967 -2.01882,-25.64186 C 690.16167,700.72968 691.29684,703 676.39389,703 h -11.36122 l -0.26634,26.75 -0.26633,26.75 -11,0.20279 c -6.05,0.11154 -12.0125,-0.21146 -13.25,-0.71778 z m 198.58793,-0.68029 c -1.85545,-2.23568 -1.52826,-132.22927 0.33599,-133.48801 2.56461,-1.73162 52.8387,-0.44579 57.16428,1.46206 14.2265,6.27477 18.54035,15.04697 19.07225,38.78332 0.91569,40.86324 -5.84299,50.35251 -36.91045,51.82271 l -13,0.6152 -0.27081,20.28266 -0.27081,20.28267 -2.64327,1.00497 c -4.16946,1.58522 -22.00898,1.00349 -23.47718,-0.76558 z m 46.1146,-68.92545 c 3.08287,-3.45045 4.37765,-11.48797 3.95401,-24.54495 -0.4124,-12.71047 -4.12987,-16.18319 -16.72978,-15.62834 L 865.5,646.5 l -0.26966,21.17289 c -0.30887,24.25069 -1.28913,22.1219 10.10179,21.93763 6.3238,-0.1023 7.03958,-0.34271 9.6204,-3.23125 z M 495,576.84853 C 435.32597,573.468 371.17004,542.15807 331.67363,497.14059 322.3475,486.17833 311.24088,469.42814 310.00961,467.49406 308.69127,466.25455 280.23865,408.00129 277.50548,383.5 276.36672,373.29161 277.30425,374 264.93261,374 H 254 l 0.005,-3.25 c 0.004,-2.62972 1.20582,-4.49055 6.29509,-9.75 3.45932,-3.575 15.35311,-16.625 26.43063,-29 29.04456,-32.44645 30.57379,-34 33.46775,-34 2.65054,0 4.70927,1.99885 28.80504,27.96721 6.87284,7.40696 18.68977,19.95327 26.25983,27.88068 18.75889,19.64441 19.07147,21.6957 3.24472,21.29358 L 369,374.89989 v 3.15255 c 0,3.50921 4.71297,18.26198 8.43025,26.38879 7.02156,15.3507 23.36271,34.39151 39.29288,45.78431 14.96091,9.91823 6.6211,5.14718 16.31688,10.85928 40.63431,25.2022 99.44248,28.96477 139.02691,8.89501 48.20683,-24.44143 80.51714,-84.35756 73.87589,-136.99523 -2.64914,-20.99675 -3.92286,-19.6249 19.05719,-20.52554 19.35547,-0.75858 20.87285,-1.13579 24.12593,-5.99752 2.26185,-3.38034 7.91971,-13.50452 32.53128,-58.21154 6.80784,-12.36647 10.4684,-8.05824 22.27871,26.22051 6.87018,19.9403 6.99391,19.32279 -5.61299,28.01367 -5.59739,3.8587 -10.45274,7.29617 -10.78966,7.63882 -0.9607,0.97701 1.55206,19.14304 2.96104,21.4069 1.24572,2.00155 6.55522,3.77521 15.19367,5.07549 7.85786,1.18279 8.52629,2.66393 7.77934,17.23762 -1.45442,28.37712 -1.0983,27.71831 -15.4916,28.65858 l -10.95717,0.71579 -1.06231,4.14131 c -0.58428,2.27772 -2.16355,7.96631 -3.50951,12.64131 -3.48792,12.11484 -3.3654,12.77504 3.24763,17.5 13.51801,9.65851 13.61372,10.12982 5.3463,26.32567 -11.11756,21.77928 -11.37824,22.00558 -22.55849,19.58292 -14.42995,-3.12685 -12.0587,-4.10099 -21.82422,8.96561 -10.16881,13.60619 -9.91191,12.04404 -3.63595,22.10989 6.57091,10.53892 6.51644,10.9288 -2.772,19.84254 -21.13147,20.27902 -22.4019,20.78938 -31.95689,12.83764 -9.74348,-8.10861 -8.23374,-8.16857 -23.3861,0.92878 -16.12331,9.6803 -15.1527,8.20111 -12.17044,18.54756 3.86587,13.41201 4.05576,13.21243 -18.77237,19.73086 -32.80735,9.36794 -62.6928,12.53183 -98.9642,10.47706 z m 38,-9.78935 c 10.76631,-1.12251 34.7402,-8.49057 40.43052,-12.4258 l 2.93052,-2.02665 -2.63456,-0.70459 c -1.44901,-0.38752 -6.81774,-0.10373 -11.93052,0.63066 -10.30569,1.48029 -42.49005,2.68872 -41.14772,1.54498 0.46847,-0.39916 5.12676,-1.55706 10.35176,-2.5731 22.13465,-4.30426 41.51542,-13.38271 53.40207,-25.01489 2.25386,-2.20561 6.26009,-5.74345 8.90274,-7.86186 6.06929,-4.86529 5.72799,-5.11757 -2.75686,-2.03773 -3.7833,1.37326 -7.57809,2.22848 -8.43286,1.90047 -0.85477,-0.32801 -1.23234,-0.27459 -0.83904,0.11871 2.67662,2.67662 -24.86266,8.11604 -45.27605,8.94268 l -12.5,0.5062 6.8681,-2.46626 c 6.97109,-2.50324 32.34272,-14.23499 34.0819,-15.75935 1.27668,-1.11898 0.65945,-1.09076 -16.85999,0.77059 -10.77195,1.14447 -19.66847,1.43453 -31.09001,1.01366 -8.8,-0.32427 -17.03906,-0.59572 -18.30902,-0.60324 -1.26996,-0.008 -2.05737,-0.42083 -1.74981,-0.91848 0.30757,-0.49765 2.47163,-0.6868 4.80902,-0.42034 2.76293,0.31497 3.79153,0.16061 2.93996,-0.44119 -0.86472,-0.61109 1.76945,-1.14424 7.75121,-1.56884 10.2095,-0.72469 25.66777,-4.27083 34.8088,-7.98516 3.36185,-1.36604 6.36836,-2.2278 6.68114,-1.91501 0.31279,0.31278 0.5687,0.0171 0.5687,-0.65699 0,-0.67413 0.45,-0.94757 1,-0.60765 0.55,0.33992 1,0.18182 1,-0.35134 0,-0.90819 9.32478,-7.09183 15.08426,-10.00299 5.33665,-2.69744 8.40821,-5.74271 6.52225,-6.46642 -0.94071,-0.36099 -1.49431,-0.30672 -1.23021,0.1206 0.26409,0.42731 -3.42504,2.00696 -8.19806,3.51034 -25.481,8.0258 -58.06811,10.77109 -80.67824,6.79669 C 430.20886,480.03629 377.11047,437.55614 364.24555,391.5 c -6.66375,-23.8561 -6.1609,-25.95897 5.94548,-24.86365 l 7.30897,0.66127 -5,-5.46515 c -2.75,-3.00583 -6.125,-6.80428 -7.5,-8.44099 C 353.51498,339.72045 323.43577,309 321.53511,309 c -1.80958,0 -53.69332,54.02365 -53.22891,55.42429 0.19617,0.59164 2.52931,1.15744 5.18475,1.25734 8.32404,0.31314 9.2513,0.82705 10.04149,5.56523 1.27623,7.65268 1.56002,9.14357 3.56967,18.75314 3.15188,15.07134 4.69592,21.03437 7.78313,30.05817 2.99795,8.76289 10.97222,26.89106 14.33902,32.59735 1.06395,1.80326 1.6403,3.75462 1.28077,4.33634 -0.35953,0.58173 -0.22058,0.93404 0.30878,0.78292 0.52936,-0.15113 3.11902,2.87522 5.7548,6.72522 14.94606,21.83125 26.1514,34.68611 41.43139,47.53044 4.675,3.9298 8.37635,7.58904 8.22522,8.13165 -0.15112,0.54262 0.12246,0.74107 0.60796,0.44101 0.4855,-0.30006 3.18167,1.129 5.99148,3.17567 24.19352,17.62265 38.01283,24.77548 63.90262,33.07581 32.71236,10.48766 62.88383,13.68574 96.27272,10.2046 z M 373,295.62209 c -5.8021,-2.13868 -39.75289,-16.82878 -53.5,-23.14881 -4.4,-2.02283 -12.275,-5.45199 -17.5,-7.62034 -20.41445,-8.47191 -20.11535,-7.6117 -9.83635,-28.28926 30.51213,-61.37916 91.72008,-109.46422 156.08512,-122.6207 90.8655,-18.573285 182.6528,7.32933 234.02575,66.04267 l 5.67481,6.48566 12.39213,-6.46866 c 18.93779,-9.88547 18.8227,-10.28961 7.26222,25.50205 -4.61797,14.29742 -11.87428,36.78411 -16.12512,49.97042 -10.1494,31.48392 -11.84815,33.38925 -25.51322,28.6157 C 662.9594,283.04077 651.725,279.62473 641,276.49961 c -10.725,-3.12511 -27.375,-8.08598 -37,-11.02415 -9.625,-2.93817 -21.70496,-6.47727 -26.84437,-7.86467 -16.65249,-4.49538 -16.77716,-7.48879 -0.65563,-15.74232 6.99793,-3.58264 10.88074,-6.1294 10.67219,-7 C 582.43917,215.10991 540.11684,195.88982 507,198.4594 c -49.89569,3.87146 -94.39609,35.64286 -119.67147,85.44036 -7.41805,14.61503 -7.12695,14.37688 -14.32853,11.72233 z m 6.9531,-15.15423 c 2.27364,-4.14267 4.55916,-7.2693 5.07894,-6.94806 0.51978,0.32124 0.69435,-0.0692 0.38795,-0.86771 -0.6354,-1.65583 7.88983,-15.85319 16.43661,-27.37244 6.77441,-9.13047 19.15667,-20.38133 28.22072,-25.64211 3.53247,-2.05025 8.44768,-5.03315 10.92268,-6.62866 26.71708,-17.22321 55.54529,-24.97628 82.5,-22.1876 6.6,0.68282 14.30327,1.47735 17.11838,1.76562 2.81511,0.28827 6.77137,1.41007 8.79168,2.49289 6.05075,3.24301 16.50053,6.8739 17.08084,5.93493 0.29795,-0.48209 0.13423,-1.12837 -0.36381,-1.43617 -0.49804,-0.30781 -1.2103,-1.77396 -1.5828,-3.25811 -0.3725,-1.48415 -1.65985,-4.07401 -2.86078,-5.75525 -1.20093,-1.68125 -3.03178,-4.63369 -4.06855,-6.561 C 551.08356,171.86263 521.81952,143 516.04049,143 c -1.12227,0 -1.92799,-0.45077 -1.79049,-1.00172 0.4645,-1.86118 -15.15043,-9.59139 -27.28174,-13.50589 -36.96672,-11.92833 -95.9136,6.56752 -133.96826,42.03543 -1.925,1.79415 -5.71099,5.22186 -8.4133,7.61713 -16.23223,14.38789 -38.48617,45.02355 -46.02152,63.35505 -1.58259,3.85 -3.25717,7.4275 -3.7213,7.95 -0.46414,0.5225 -0.84388,1.46674 -0.84388,2.09831 0,1.26896 7.82835,4.67581 9.03318,3.93118 0.41649,-0.2574 0.98982,0.13806 1.27407,0.8788 0.28424,0.74074 4.9439,3.26644 10.35478,5.61266 5.41088,2.34623 12.60231,5.56259 15.98094,7.14746 3.37863,1.58487 6.4253,2.88159 6.77037,2.88159 0.34508,0 4.33075,1.74264 8.85704,3.87253 4.52629,2.12989 11.60462,5.30354 15.72962,7.05256 4.125,1.74902 8.4,3.57593 9.5,4.05979 3.6225,1.59346 4.28004,1.08652 8.4531,-6.51702 z"
         id="path13519"
         sodipodi:nodetypes="ssssssssssssssssssssssssssssssscccsssssssssssssssssssssssssssssssssssscsssscssssssssssscsssssssssssscsssssssscsssscsssscsssssssscccssssssscccssssscssssccsscssssssscssccsssssssssssscssssssssssssssscsssssssssscsssscsssssssssssssssscsssssssssssssssssssssssscsssssssssssssssssssssssssssssssssssssssssss" />
      <path
         sodipodi:type="star"
         style="font-variation-settings:'wght' 800;fill:#e6ddc9;stroke:none;stroke-width:1;stroke-linecap:round;stroke-dasharray:none;fill-opacity:1"
         id="path958"
         inkscape:flatsided="true"
         sodipodi:sides="6"
         sodipodi:cx="645.02393"
         sodipodi:cy="215.39058"
         sodipodi:r1="32.471153"
         sodipodi:r2="29.081268"
         sodipodi:arg1="0.58295537"
         sodipodi:arg2="1.1065542"
         inkscape:rounded="0"
         inkscape:randomized="0"
         d="m 672.13212,233.26574 -29.03444,14.53881 -27.1082,-17.87516 1.92625,-32.41397 29.03444,-14.53881 27.1082,17.87516 z"
         inkscape:transform-center-x="1.3462737"
         inkscape:transform-center-y="-2.6219586"
         transform="translate(-0.50000013,-0.429823)" />
      <circle
         style="font-variation-settings:'wght' 800;fill:#2f2f2f;stroke:none;stroke-width:1;stroke-linecap:round;stroke-dasharray:none;fill-opacity:1"
         id="path298"
         cx="644.71832"
         cy="215.46722"
         r="13.984252" />
    </g>
  </g>
</svg>
